<?xml version="1.0" encoding="utf-8"?>
<!-- Generator: Adobe Illustrator 25.0.0, SVG Export Plug-In . SVG Version: 6.00 Build 0)  -->
<svg version="1.1" id="Layer_1" xmlns="http://www.w3.org/2000/svg" xmlns:xlink="http://www.w3.org/1999/xlink" x="0px" y="0px"
	 viewBox="0 0 16 16" style="enable-background:new 0 0 16 16;" xml:space="preserve">
<style type="text/css">
	.st0{fill:#033F60;}
	.st1{fill:#FFFFFF;}
</style>
<g>
	<rect y="0" class="st0" width="16" height="16"/>
</g>
<g>
	<path class="st1" d="M11.1,6l-0.2-0.2L10.6,6L9.9,6.6C9.7,6.4,9.4,6.1,9.2,5.8l-1-1.2L7.9,4.3L7.6,4.6L6,6.6
		C5.5,7.1,5.1,7.6,4.6,8.2C4.3,7.8,4,7.4,3.7,7L3.5,6.7L3.3,7C3,7.4,2.7,7.8,2.4,8.2C2.1,8.6,1.9,9,1.6,9.4
		c-0.3,0.4-0.5,0.8-0.8,1.2c-0.3,0.4-0.5,0.8-0.8,1.2c0.3-0.4,0.6-0.7,1-1.1c0.3-0.4,0.6-0.7,0.9-1.1c0.3-0.4,0.6-0.7,0.9-1.1
		C3,8.2,3.3,8,3.5,7.7C3.8,8.1,4.1,8.6,4.4,9L5,9.9l0.9,1.2l0.8-1.3l1.9,1.1c0,0,0.6-0.9,0.6-1c0-0.1,0.4,1.2,0.4,1.2l0.7-1.3
		c0,0,0.7,1,0.9,1.1L9.7,8.3l0.1-0.5l0,0l0.3-0.3l0.7-0.7c0.4,0.4,4.6,4,5.1,4.4C15.6,10.7,11.6,6.4,11.1,6z M7.9,6.5l0.1,1.1
		L7.6,6.7l0,0.9c0,0-0.6-0.5-0.6-0.5L6.8,8.1L6.5,7.7L6.3,9.2L6,8.8L5.5,8.9l0.1-0.2L5.2,8.6l2.6-3.4l0.9,2L7.9,6.5z"/>
	<rect x="2.8" y="8.9" class="st1" width="0.5" height="0.5"/>
	<rect x="3.5" y="8.9" class="st1" width="0.5" height="0.5"/>
	<rect x="2.8" y="9.6" class="st1" width="0.5" height="0.5"/>
	<rect x="3.5" y="9.6" class="st1" width="0.5" height="0.5"/>
	<rect x="10.7" y="8.1" class="st1" width="0.4" height="0.4"/>
	<rect x="11.2" y="8.1" class="st1" width="0.4" height="0.4"/>
	<rect x="10.7" y="8.7" class="st1" width="0.4" height="0.4"/>
	<rect x="11.2" y="8.7" class="st1" width="0.4" height="0.4"/>
</g>
</svg>
